<?xml version="1.0" encoding="utf-8" standalone="no"?>
<!DOCTYPE score-partwise PUBLIC "-//Recordare//DTD MusicXML 3.0 Partwise//EN" "http://www.musicxml.org/dtds/partwise.dtd">
<score-partwise version="3">
	<work>
		<work-title>Abyzova-032-049</work-title>
	</work>
	<identification>
		<creator type="composer">StaffPad</creator>
		<encoding>
			<software>3.0.0</software>
		</encoding>
	</identification>
	<part-list>
		<score-part id="P1">
			<part-name>Violin</part-name>
			<score-instrument id="P1-I1">
				<instrument-name>Violin</instrument-name>
				<instrument-abbreviation>Vln</instrument-abbreviation>
				<instrument-sound>strings.violin</instrument-sound>
			</score-instrument>
		</score-part>
		<score-part id="P2">
			<part-name>Viola I</part-name>
			<score-instrument id="P2-I1">
				<instrument-name>Viola I</instrument-name>
				<instrument-abbreviation>Vla I</instrument-abbreviation>
				<instrument-sound>strings.viola</instrument-sound>
			</score-instrument>
		</score-part>
		<score-part id="P3">
			<part-name>Viola II</part-name>
			<score-instrument id="P3-I1">
				<instrument-name>Viola II</instrument-name>
				<instrument-abbreviation>Vla II</instrument-abbreviation>
				<instrument-sound>strings.viola</instrument-sound>
			</score-instrument>
		</score-part>
		<score-part id="P4">
			<part-name>Cello</part-name>
			<score-instrument id="P4-I1">
				<instrument-name>Cello</instrument-name>
				<instrument-abbreviation>Vlc</instrument-abbreviation>
				<instrument-sound>strings.cello</instrument-sound>
			</score-instrument>
		</score-part>
	</part-list>
	<part id="P1">
		<measure number="1">
			<attributes>
				<divisions>192</divisions>
				<key>
					<fifths>0</fifths>
					<mode>major</mode>
				</key>
				<time symbol="common">
					<beats>4</beats>
					<beat-type>4</beat-type>
				</time>
				<staves>1</staves>
				<clef>
					<sign>C</sign>
					<line>1</line>
				</clef>
				<staff-details>
					<staff-lines>5</staff-lines>
				</staff-details>
				<transpose>
					<diatonic>0</diatonic>
					<chromatic>0</chromatic>
					<octave-change>0</octave-change>
				</transpose>
			</attributes>
			<direction placement="above">
				<direction-type>
					<words>Ⅰ¹</words>
				</direction-type>
			</direction>
			<direction>
				<direction-type>
					<rehearsal>A</rehearsal>
				</direction-type>
			</direction>
			<note>
				<pitch>
					<step>C</step>
					<octave>5</octave>
				</pitch>
				<duration>384</duration>
				<voice>1</voice>
				<type>half</type>
			</note>
			<direction placement="above">
				<direction-type>
					<words>Ⅴ⁵</words>
				</direction-type>
			</direction>
			<note>
				<pitch>
					<step>D</step>
					<octave>5</octave>
				</pitch>
				<duration>384</duration>
				<voice>1</voice>
				<type>half</type>
			</note>
		</measure>
		<measure number="2">
			<direction placement="above">
				<direction-type>
					<words>Ⅰ¹</words>
				</direction-type>
			</direction>
			<note>
				<pitch>
					<step>C</step>
					<octave>5</octave>
				</pitch>
				<duration>384</duration>
				<voice>1</voice>
				<type>half</type>
			</note>
			<direction placement="above">
				<direction-type>
					<words>Ⅴ³</words>
				</direction-type>
			</direction>
			<note>
				<pitch>
					<step>B</step>
					<octave>4</octave>
				</pitch>
				<duration>384</duration>
				<voice>1</voice>
				<type>half</type>
			</note>
		</measure>
		<measure number="3">
			<direction placement="above">
				<direction-type>
					<words>Ⅰ¹</words>
				</direction-type>
			</direction>
			<note>
				<pitch>
					<step>C</step>
					<octave>5</octave>
				</pitch>
				<duration>384</duration>
				<voice>1</voice>
				<type>half</type>
			</note>
			<direction placement="above">
				<direction-type>
					<words>Ⅳ³</words>
				</direction-type>
			</direction>
			<note>
				<pitch>
					<step>A</step>
					<octave>4</octave>
				</pitch>
				<duration>384</duration>
				<voice>1</voice>
				<type>half</type>
			</note>
			<barline location="right">
				<bar-style>light-light</bar-style>
			</barline>
		</measure>
		<measure number="4">
			<direction placement="above">
				<direction-type>
					<words>Ⅰ⁵</words>
				</direction-type>
			</direction>
			<note>
				<pitch>
					<step>G</step>
					<octave>4</octave>
				</pitch>
				<duration>384</duration>
				<voice>1</voice>
				<type>half</type>
			</note>
			<direction placement="above">
				<direction-type>
					<words>Ⅳ³</words>
				</direction-type>
			</direction>
			<note>
				<pitch>
					<step>A</step>
					<octave>4</octave>
				</pitch>
				<duration>384</duration>
				<voice>1</voice>
				<type>half</type>
			</note>
		</measure>
		<measure number="5">
			<direction placement="above">
				<direction-type>
					<words>Ⅰ⁵</words>
				</direction-type>
			</direction>
			<note>
				<pitch>
					<step>G</step>
					<octave>4</octave>
				</pitch>
				<duration>384</duration>
				<voice>1</voice>
				<type>half</type>
			</note>
			<direction placement="above">
				<direction-type>
					<words>Ⅳ¹</words>
				</direction-type>
			</direction>
			<note>
				<pitch>
					<step>F</step>
					<octave>4</octave>
				</pitch>
				<duration>384</duration>
				<voice>1</voice>
				<type>half</type>
			</note>
		</measure>
		<measure number="6">
			<direction placement="above">
				<direction-type>
					<words>Ⅰ⁵</words>
				</direction-type>
			</direction>
			<note>
				<pitch>
					<step>G</step>
					<octave>4</octave>
				</pitch>
				<duration>384</duration>
				<voice>1</voice>
				<type>half</type>
			</note>
			<direction placement="above">
				<direction-type>
					<words>Ⅴ³</words>
				</direction-type>
			</direction>
			<note>
				<pitch>
					<step>B</step>
					<octave>4</octave>
				</pitch>
				<duration>384</duration>
				<voice>1</voice>
				<type>half</type>
			</note>
			<barline location="right">
				<bar-style>light-light</bar-style>
			</barline>
		</measure>
		<measure number="7">
			<direction placement="above">
				<direction-type>
					<words>Ⅰ³</words>
				</direction-type>
			</direction>
			<note>
				<pitch>
					<step>E</step>
					<octave>5</octave>
				</pitch>
				<duration>384</duration>
				<voice>1</voice>
				<type>half</type>
			</note>
			<direction placement="above">
				<direction-type>
					<words>Ⅳ¹</words>
				</direction-type>
			</direction>
			<note>
				<pitch>
					<step>F</step>
					<octave>5</octave>
				</pitch>
				<duration>384</duration>
				<voice>1</voice>
				<type>half</type>
			</note>
		</measure>
		<measure number="8">
			<direction placement="above">
				<direction-type>
					<words>Ⅰ³</words>
				</direction-type>
			</direction>
			<note>
				<pitch>
					<step>E</step>
					<octave>5</octave>
				</pitch>
				<duration>384</duration>
				<voice>1</voice>
				<type>half</type>
			</note>
			<direction placement="above">
				<direction-type>
					<words>Ⅴ⁵</words>
				</direction-type>
			</direction>
			<note>
				<pitch>
					<step>D</step>
					<octave>5</octave>
				</pitch>
				<duration>384</duration>
				<voice>1</voice>
				<type>half</type>
			</note>
		</measure>
		<measure number="9">
			<direction placement="above">
				<direction-type>
					<words>Ⅰ³</words>
				</direction-type>
			</direction>
			<note>
				<pitch>
					<step>E</step>
					<octave>5</octave>
				</pitch>
				<duration>384</duration>
				<voice>1</voice>
				<type>half</type>
			</note>
			<direction placement="above">
				<direction-type>
					<words>Ⅴ¹</words>
				</direction-type>
			</direction>
			<note>
				<pitch>
					<step>G</step>
					<octave>5</octave>
				</pitch>
				<duration>384</duration>
				<voice>1</voice>
				<type>half</type>
			</note>
		</measure>
		<measure number="10">
			<direction placement="above">
				<direction-type>
					<words>Ⅰ³</words>
				</direction-type>
			</direction>
			<note>
				<pitch>
					<step>E</step>
					<octave>5</octave>
				</pitch>
				<duration>384</duration>
				<voice>1</voice>
				<type>half</type>
			</note>
			<direction placement="above">
				<direction-type>
					<words>Ⅳ⁵</words>
				</direction-type>
			</direction>
			<note>
				<pitch>
					<step>C</step>
					<octave>5</octave>
				</pitch>
				<duration>384</duration>
				<voice>1</voice>
				<type>half</type>
			</note>
			<barline location="right">
				<bar-style>light-light</bar-style>
			</barline>
		</measure>
		<measure number="11">
			<direction placement="above">
				<direction-type>
					<words>Ⅰ¹</words>
				</direction-type>
			</direction>
			<direction>
				<direction-type>
					<rehearsal>B</rehearsal>
				</direction-type>
			</direction>
			<note>
				<pitch>
					<step>C</step>
					<octave>5</octave>
				</pitch>
				<duration>384</duration>
				<voice>1</voice>
				<type>half</type>
			</note>
			<direction placement="above">
				<direction-type>
					<words>Ⅴ⁵</words>
				</direction-type>
			</direction>
			<note>
				<pitch>
					<step>D</step>
					<octave>5</octave>
				</pitch>
				<duration>384</duration>
				<voice>1</voice>
				<type>half</type>
			</note>
		</measure>
		<measure number="12">
			<direction placement="above">
				<direction-type>
					<words>Ⅰ¹</words>
				</direction-type>
			</direction>
			<note>
				<pitch>
					<step>C</step>
					<octave>5</octave>
				</pitch>
				<duration>384</duration>
				<voice>1</voice>
				<type>half</type>
			</note>
			<direction placement="above">
				<direction-type>
					<words>Ⅴ³</words>
				</direction-type>
			</direction>
			<note>
				<pitch>
					<step>B</step>
					<octave>4</octave>
				</pitch>
				<duration>384</duration>
				<voice>1</voice>
				<type>half</type>
			</note>
		</measure>
		<measure number="13">
			<direction placement="above">
				<direction-type>
					<words>Ⅰ¹</words>
				</direction-type>
			</direction>
			<note>
				<pitch>
					<step>C</step>
					<octave>5</octave>
				</pitch>
				<duration>384</duration>
				<voice>1</voice>
				<type>half</type>
			</note>
			<direction placement="above">
				<direction-type>
					<words>Ⅳ³</words>
				</direction-type>
			</direction>
			<note>
				<pitch>
					<step>A</step>
					<octave>4</octave>
				</pitch>
				<duration>384</duration>
				<voice>1</voice>
				<type>half</type>
			</note>
			<barline location="right">
				<bar-style>light-light</bar-style>
			</barline>
		</measure>
		<measure number="14">
			<direction placement="above">
				<direction-type>
					<words>Ⅰ⁵</words>
				</direction-type>
			</direction>
			<note>
				<pitch>
					<step>G</step>
					<octave>4</octave>
				</pitch>
				<duration>384</duration>
				<voice>1</voice>
				<type>half</type>
			</note>
			<direction placement="above">
				<direction-type>
					<words>Ⅳ³</words>
				</direction-type>
			</direction>
			<note>
				<pitch>
					<step>A</step>
					<octave>4</octave>
				</pitch>
				<duration>384</duration>
				<voice>1</voice>
				<type>half</type>
			</note>
		</measure>
		<measure number="15">
			<direction placement="above">
				<direction-type>
					<words>Ⅰ⁵</words>
				</direction-type>
			</direction>
			<note>
				<pitch>
					<step>G</step>
					<octave>4</octave>
				</pitch>
				<duration>384</duration>
				<voice>1</voice>
				<type>half</type>
			</note>
			<direction placement="above">
				<direction-type>
					<words>Ⅳ¹</words>
				</direction-type>
			</direction>
			<note>
				<pitch>
					<step>F</step>
					<octave>4</octave>
				</pitch>
				<duration>384</duration>
				<voice>1</voice>
				<type>half</type>
			</note>
		</measure>
		<measure number="16">
			<direction placement="above">
				<direction-type>
					<words>Ⅰ⁵</words>
				</direction-type>
			</direction>
			<note>
				<pitch>
					<step>G</step>
					<octave>4</octave>
				</pitch>
				<duration>384</duration>
				<voice>1</voice>
				<type>half</type>
			</note>
			<direction placement="above">
				<direction-type>
					<words>Ⅴ³</words>
				</direction-type>
			</direction>
			<note>
				<pitch>
					<step>B</step>
					<octave>4</octave>
				</pitch>
				<duration>384</duration>
				<voice>1</voice>
				<type>half</type>
			</note>
			<barline location="right">
				<bar-style>light-light</bar-style>
			</barline>
		</measure>
		<measure number="17">
			<direction placement="above">
				<direction-type>
					<words>Ⅰ³</words>
				</direction-type>
			</direction>
			<note>
				<pitch>
					<step>E</step>
					<octave>4</octave>
				</pitch>
				<duration>384</duration>
				<voice>1</voice>
				<type>half</type>
			</note>
			<direction placement="above">
				<direction-type>
					<words>Ⅳ¹</words>
				</direction-type>
			</direction>
			<note>
				<pitch>
					<step>F</step>
					<octave>4</octave>
				</pitch>
				<duration>384</duration>
				<voice>1</voice>
				<type>half</type>
			</note>
		</measure>
		<measure number="18">
			<direction placement="above">
				<direction-type>
					<words>Ⅰ³</words>
				</direction-type>
			</direction>
			<note>
				<pitch>
					<step>E</step>
					<octave>4</octave>
				</pitch>
				<duration>384</duration>
				<voice>1</voice>
				<type>half</type>
			</note>
			<direction placement="above">
				<direction-type>
					<words>Ⅴ⁵</words>
				</direction-type>
			</direction>
			<note>
				<pitch>
					<step>D</step>
					<octave>4</octave>
				</pitch>
				<duration>384</duration>
				<voice>1</voice>
				<type>half</type>
			</note>
		</measure>
		<measure number="19">
			<direction placement="above">
				<direction-type>
					<words>Ⅰ³</words>
				</direction-type>
			</direction>
			<note>
				<pitch>
					<step>E</step>
					<octave>4</octave>
				</pitch>
				<duration>384</duration>
				<voice>1</voice>
				<type>half</type>
			</note>
			<direction placement="above">
				<direction-type>
					<words>Ⅴ¹</words>
				</direction-type>
			</direction>
			<note>
				<pitch>
					<step>G</step>
					<octave>4</octave>
				</pitch>
				<duration>384</duration>
				<voice>1</voice>
				<type>half</type>
			</note>
		</measure>
		<measure number="20">
			<direction placement="above">
				<direction-type>
					<words>Ⅰ³</words>
				</direction-type>
			</direction>
			<note>
				<pitch>
					<step>E</step>
					<octave>4</octave>
				</pitch>
				<duration>384</duration>
				<voice>1</voice>
				<type>half</type>
			</note>
			<direction placement="above">
				<direction-type>
					<words>Ⅳ⁵</words>
				</direction-type>
			</direction>
			<note>
				<pitch>
					<step>C</step>
					<octave>4</octave>
				</pitch>
				<duration>384</duration>
				<voice>1</voice>
				<type>half</type>
			</note>
			<barline location="right">
				<bar-style>light-light</bar-style>
			</barline>
		</measure>
		<measure number="21">
			<direction placement="above">
				<direction-type>
					<words>Ⅳ¹</words>
				</direction-type>
			</direction>
			<direction>
				<direction-type>
					<rehearsal>C</rehearsal>
				</direction-type>
			</direction>
			<note>
				<pitch>
					<step>F</step>
					<octave>5</octave>
				</pitch>
				<duration>384</duration>
				<voice>1</voice>
				<type>half</type>
			</note>
			<direction placement="above">
				<direction-type>
					<words>Ⅰ⁵</words>
				</direction-type>
			</direction>
			<note>
				<pitch>
					<step>G</step>
					<octave>5</octave>
				</pitch>
				<duration>384</duration>
				<voice>1</voice>
				<type>half</type>
			</note>
		</measure>
		<measure number="22">
			<direction placement="above">
				<direction-type>
					<words>Ⅳ¹</words>
				</direction-type>
			</direction>
			<note>
				<pitch>
					<step>F</step>
					<octave>5</octave>
				</pitch>
				<duration>384</duration>
				<voice>1</voice>
				<type>half</type>
			</note>
			<direction placement="above">
				<direction-type>
					<words>Ⅰ³</words>
				</direction-type>
			</direction>
			<note>
				<pitch>
					<step>E</step>
					<octave>5</octave>
				</pitch>
				<duration>384</duration>
				<voice>1</voice>
				<type>half</type>
			</note>
		</measure>
		<measure number="23">
			<direction placement="above">
				<direction-type>
					<words>Ⅳ¹</words>
				</direction-type>
			</direction>
			<note>
				<pitch>
					<step>F</step>
					<octave>5</octave>
				</pitch>
				<duration>384</duration>
				<voice>1</voice>
				<type>half</type>
			</note>
			<direction placement="above">
				<direction-type>
					<words>Ⅴ⁵</words>
				</direction-type>
			</direction>
			<note>
				<pitch>
					<step>D</step>
					<octave>5</octave>
				</pitch>
				<duration>384</duration>
				<voice>1</voice>
				<type>half</type>
			</note>
			<barline location="right">
				<bar-style>light-light</bar-style>
			</barline>
		</measure>
		<measure number="24">
			<direction placement="above">
				<direction-type>
					<words>Ⅳ⁵</words>
				</direction-type>
			</direction>
			<note>
				<pitch>
					<step>C</step>
					<octave>5</octave>
				</pitch>
				<duration>384</duration>
				<voice>1</voice>
				<type>half</type>
			</note>
			<direction placement="above">
				<direction-type>
					<words>Ⅴ³</words>
				</direction-type>
			</direction>
			<note>
				<pitch>
					<step>B</step>
					<octave>4</octave>
				</pitch>
				<duration>384</duration>
				<voice>1</voice>
				<type>half</type>
			</note>
		</measure>
		<measure number="25">
			<direction placement="above">
				<direction-type>
					<words>Ⅳ⁵</words>
				</direction-type>
			</direction>
			<note>
				<pitch>
					<step>C</step>
					<octave>5</octave>
				</pitch>
				<duration>384</duration>
				<voice>1</voice>
				<type>half</type>
			</note>
			<direction placement="above">
				<direction-type>
					<words>Ⅰ³</words>
				</direction-type>
			</direction>
			<note>
				<pitch>
					<step>E</step>
					<octave>5</octave>
				</pitch>
				<duration>384</duration>
				<voice>1</voice>
				<type>half</type>
			</note>
			<barline location="right">
				<bar-style>light-light</bar-style>
			</barline>
		</measure>
		<measure number="26">
			<direction placement="above">
				<direction-type>
					<words>Ⅳ³</words>
				</direction-type>
			</direction>
			<note>
				<pitch>
					<step>A</step>
					<octave>4</octave>
				</pitch>
				<duration>384</duration>
				<voice>1</voice>
				<type>half</type>
			</note>
			<direction placement="above">
				<direction-type>
					<words>Ⅴ¹</words>
				</direction-type>
			</direction>
			<note>
				<pitch>
					<step>G</step>
					<octave>4</octave>
				</pitch>
				<duration>384</duration>
				<voice>1</voice>
				<type>half</type>
			</note>
		</measure>
		<measure number="27">
			<direction placement="above">
				<direction-type>
					<words>Ⅳ³</words>
				</direction-type>
			</direction>
			<note>
				<pitch>
					<step>A</step>
					<octave>4</octave>
				</pitch>
				<duration>384</duration>
				<voice>1</voice>
				<type>half</type>
			</note>
			<direction placement="above">
				<direction-type>
					<words>Ⅰ¹</words>
				</direction-type>
			</direction>
			<note>
				<pitch>
					<step>C</step>
					<octave>5</octave>
				</pitch>
				<duration>384</duration>
				<voice>1</voice>
				<type>half</type>
			</note>
			<barline location="right">
				<bar-style>light-light</bar-style>
			</barline>
		</measure>
		<measure number="28">
			<direction placement="above">
				<direction-type>
					<words>Ⅳ¹</words>
				</direction-type>
			</direction>
			<direction>
				<direction-type>
					<rehearsal>D</rehearsal>
				</direction-type>
			</direction>
			<note>
				<pitch>
					<step>F</step>
					<octave>4</octave>
				</pitch>
				<duration>384</duration>
				<voice>1</voice>
				<type>half</type>
			</note>
			<direction placement="above">
				<direction-type>
					<words>Ⅰ⁵</words>
				</direction-type>
			</direction>
			<note>
				<pitch>
					<step>G</step>
					<octave>4</octave>
				</pitch>
				<duration>384</duration>
				<voice>1</voice>
				<type>half</type>
			</note>
		</measure>
		<measure number="29">
			<direction placement="above">
				<direction-type>
					<words>Ⅳ¹</words>
				</direction-type>
			</direction>
			<note>
				<pitch>
					<step>F</step>
					<octave>4</octave>
				</pitch>
				<duration>384</duration>
				<voice>1</voice>
				<type>half</type>
			</note>
			<direction placement="above">
				<direction-type>
					<words>Ⅰ³</words>
				</direction-type>
			</direction>
			<note>
				<pitch>
					<step>E</step>
					<octave>4</octave>
				</pitch>
				<duration>384</duration>
				<voice>1</voice>
				<type>half</type>
			</note>
		</measure>
		<measure number="30">
			<direction placement="above">
				<direction-type>
					<words>Ⅳ¹</words>
				</direction-type>
			</direction>
			<note>
				<pitch>
					<step>F</step>
					<octave>4</octave>
				</pitch>
				<duration>384</duration>
				<voice>1</voice>
				<type>half</type>
			</note>
			<direction placement="above">
				<direction-type>
					<words>Ⅴ⁵</words>
				</direction-type>
			</direction>
			<note>
				<pitch>
					<step>D</step>
					<octave>4</octave>
				</pitch>
				<duration>384</duration>
				<voice>1</voice>
				<type>half</type>
			</note>
			<barline location="right">
				<bar-style>light-light</bar-style>
			</barline>
		</measure>
		<measure number="31">
			<direction placement="above">
				<direction-type>
					<words>Ⅳ⁵</words>
				</direction-type>
			</direction>
			<note>
				<pitch>
					<step>C</step>
					<octave>5</octave>
				</pitch>
				<duration>384</duration>
				<voice>1</voice>
				<type>half</type>
			</note>
			<direction placement="above">
				<direction-type>
					<words>Ⅴ³</words>
				</direction-type>
			</direction>
			<note>
				<pitch>
					<step>B</step>
					<octave>4</octave>
				</pitch>
				<duration>384</duration>
				<voice>1</voice>
				<type>half</type>
			</note>
		</measure>
		<measure number="32">
			<direction placement="above">
				<direction-type>
					<words>Ⅳ⁵</words>
				</direction-type>
			</direction>
			<note>
				<pitch>
					<step>C</step>
					<octave>5</octave>
				</pitch>
				<duration>384</duration>
				<voice>1</voice>
				<type>half</type>
			</note>
			<direction placement="above">
				<direction-type>
					<words>Ⅰ³</words>
				</direction-type>
			</direction>
			<note>
				<pitch>
					<step>E</step>
					<octave>5</octave>
				</pitch>
				<duration>384</duration>
				<voice>1</voice>
				<type>half</type>
			</note>
			<barline location="right">
				<bar-style>light-light</bar-style>
			</barline>
		</measure>
		<measure number="33">
			<direction placement="above">
				<direction-type>
					<words>Ⅳ³</words>
				</direction-type>
			</direction>
			<note>
				<pitch>
					<step>A</step>
					<octave>4</octave>
				</pitch>
				<duration>384</duration>
				<voice>1</voice>
				<type>half</type>
			</note>
			<direction placement="above">
				<direction-type>
					<words>Ⅴ¹</words>
				</direction-type>
			</direction>
			<note>
				<pitch>
					<step>G</step>
					<octave>4</octave>
				</pitch>
				<duration>384</duration>
				<voice>1</voice>
				<type>half</type>
			</note>
		</measure>
		<measure number="34">
			<direction placement="above">
				<direction-type>
					<words>Ⅳ³</words>
				</direction-type>
			</direction>
			<note>
				<pitch>
					<step>A</step>
					<octave>4</octave>
				</pitch>
				<duration>384</duration>
				<voice>1</voice>
				<type>half</type>
			</note>
			<direction placement="above">
				<direction-type>
					<words>Ⅰ¹</words>
				</direction-type>
			</direction>
			<note>
				<pitch>
					<step>C</step>
					<octave>5</octave>
				</pitch>
				<duration>384</duration>
				<voice>1</voice>
				<type>half</type>
			</note>
			<barline location="right">
				<bar-style>light-light</bar-style>
			</barline>
		</measure>
		<measure number="35">
			<direction placement="above">
				<direction-type>
					<words>Ⅴ¹</words>
				</direction-type>
			</direction>
			<direction>
				<direction-type>
					<rehearsal>E</rehearsal>
				</direction-type>
			</direction>
			<note>
				<pitch>
					<step>G</step>
					<octave>4</octave>
				</pitch>
				<duration>384</duration>
				<voice>1</voice>
				<type>half</type>
			</note>
			<direction placement="above">
				<direction-type>
					<words>Ⅰ³</words>
				</direction-type>
			</direction>
			<note>
				<pitch>
					<step>E</step>
					<octave>4</octave>
				</pitch>
				<duration>384</duration>
				<voice>1</voice>
				<type>half</type>
			</note>
		</measure>
		<measure number="36">
			<direction placement="above">
				<direction-type>
					<words>Ⅴ¹</words>
				</direction-type>
			</direction>
			<note>
				<pitch>
					<step>G</step>
					<octave>4</octave>
				</pitch>
				<duration>384</duration>
				<voice>1</voice>
				<type>half</type>
			</note>
			<direction placement="above">
				<direction-type>
					<words>(Ⅰ⁻⁵)³</words>
				</direction-type>
			</direction>
			<note>
				<pitch>
					<step>E</step>
					<octave>4</octave>
				</pitch>
				<duration>384</duration>
				<voice>1</voice>
				<type>half</type>
			</note>
			<barline location="right">
				<bar-style>light-light</bar-style>
			</barline>
		</measure>
		<measure number="37">
			<direction placement="above">
				<direction-type>
					<words>Ⅴ⁵</words>
				</direction-type>
			</direction>
			<note>
				<pitch>
					<step>D</step>
					<octave>5</octave>
				</pitch>
				<duration>384</duration>
				<voice>1</voice>
				<type>half</type>
			</note>
			<direction placement="above">
				<direction-type>
					<words>Ⅰ³</words>
				</direction-type>
			</direction>
			<note>
				<pitch>
					<step>E</step>
					<octave>5</octave>
				</pitch>
				<duration>384</duration>
				<voice>1</voice>
				<type>half</type>
			</note>
		</measure>
		<measure number="38">
			<direction placement="above">
				<direction-type>
					<words>Ⅴ⁵</words>
				</direction-type>
			</direction>
			<note>
				<pitch>
					<step>D</step>
					<octave>5</octave>
				</pitch>
				<duration>384</duration>
				<voice>1</voice>
				<type>half</type>
			</note>
			<direction placement="above">
				<direction-type>
					<words>Ⅰ¹</words>
				</direction-type>
			</direction>
			<note>
				<pitch>
					<step>C</step>
					<octave>5</octave>
				</pitch>
				<duration>384</duration>
				<voice>1</voice>
				<type>half</type>
			</note>
		</measure>
		<measure number="39">
			<direction placement="above">
				<direction-type>
					<words>Ⅴ⁵</words>
				</direction-type>
			</direction>
			<note>
				<pitch>
					<step>D</step>
					<octave>5</octave>
				</pitch>
				<duration>384</duration>
				<voice>1</voice>
				<type>half</type>
			</note>
			<direction placement="above">
				<direction-type>
					<words>(Ⅰ⁻⁵)¹</words>
				</direction-type>
			</direction>
			<note>
				<pitch>
					<step>C</step>
					<octave>5</octave>
				</pitch>
				<duration>384</duration>
				<voice>1</voice>
				<type>half</type>
			</note>
			<barline location="right">
				<bar-style>light-light</bar-style>
			</barline>
		</measure>
		<measure number="40">
			<direction placement="above">
				<direction-type>
					<words>Ⅴ³</words>
				</direction-type>
			</direction>
			<note>
				<pitch>
					<step>B</step>
					<octave>4</octave>
				</pitch>
				<duration>384</duration>
				<voice>1</voice>
				<type>half</type>
			</note>
			<direction placement="above">
				<direction-type>
					<words>Ⅰ¹</words>
				</direction-type>
			</direction>
			<note>
				<pitch>
					<step>C</step>
					<octave>5</octave>
				</pitch>
				<duration>384</duration>
				<voice>1</voice>
				<type>half</type>
			</note>
		</measure>
		<measure number="41">
			<direction placement="above">
				<direction-type>
					<words>Ⅴ³</words>
				</direction-type>
			</direction>
			<note>
				<pitch>
					<step>B</step>
					<octave>4</octave>
				</pitch>
				<duration>384</duration>
				<voice>1</voice>
				<type>half</type>
			</note>
			<direction placement="above">
				<direction-type>
					<words>Ⅰ⁵</words>
				</direction-type>
			</direction>
			<note>
				<pitch>
					<step>G</step>
					<octave>4</octave>
				</pitch>
				<duration>384</duration>
				<voice>1</voice>
				<type>half</type>
			</note>
			<barline location="right">
				<bar-style>light-light</bar-style>
			</barline>
		</measure>
		<measure number="42">
			<direction placement="above">
				<direction-type>
					<words>Ⅴ¹</words>
				</direction-type>
			</direction>
			<direction>
				<direction-type>
					<rehearsal>F</rehearsal>
				</direction-type>
			</direction>
			<note>
				<pitch>
					<step>G</step>
					<octave>4</octave>
				</pitch>
				<duration>384</duration>
				<voice>1</voice>
				<type>half</type>
			</note>
			<direction placement="above">
				<direction-type>
					<words>Ⅰ³</words>
				</direction-type>
			</direction>
			<note>
				<pitch>
					<step>E</step>
					<octave>4</octave>
				</pitch>
				<duration>384</duration>
				<voice>1</voice>
				<type>half</type>
			</note>
		</measure>
		<measure number="43">
			<direction placement="above">
				<direction-type>
					<words>Ⅴ¹</words>
				</direction-type>
			</direction>
			<note>
				<pitch>
					<step>G</step>
					<octave>4</octave>
				</pitch>
				<duration>384</duration>
				<voice>1</voice>
				<type>half</type>
			</note>
			<direction placement="above">
				<direction-type>
					<words>(Ⅰ⁻⁵)³</words>
				</direction-type>
			</direction>
			<note>
				<pitch>
					<step>E</step>
					<octave>4</octave>
				</pitch>
				<duration>384</duration>
				<voice>1</voice>
				<type>half</type>
			</note>
		</measure>
		<measure number="44">
			<direction placement="above">
				<direction-type>
					<words>Ⅴ⁵</words>
				</direction-type>
			</direction>
			<note>
				<pitch>
					<step>D</step>
					<octave>4</octave>
				</pitch>
				<duration>384</duration>
				<voice>1</voice>
				<type>half</type>
			</note>
			<direction placement="above">
				<direction-type>
					<words>Ⅰ³</words>
				</direction-type>
			</direction>
			<note>
				<pitch>
					<step>E</step>
					<octave>4</octave>
				</pitch>
				<duration>384</duration>
				<voice>1</voice>
				<type>half</type>
			</note>
		</measure>
		<measure number="45">
			<direction placement="above">
				<direction-type>
					<words>Ⅴ⁵</words>
				</direction-type>
			</direction>
			<note>
				<pitch>
					<step>D</step>
					<octave>4</octave>
				</pitch>
				<duration>384</duration>
				<voice>1</voice>
				<type>half</type>
			</note>
			<direction placement="above">
				<direction-type>
					<words>Ⅰ¹</words>
				</direction-type>
			</direction>
			<note>
				<pitch>
					<step>C</step>
					<octave>4</octave>
				</pitch>
				<duration>384</duration>
				<voice>1</voice>
				<type>half</type>
			</note>
		</measure>
		<measure number="46">
			<direction placement="above">
				<direction-type>
					<words>Ⅴ⁵</words>
				</direction-type>
			</direction>
			<note>
				<pitch>
					<step>D</step>
					<octave>4</octave>
				</pitch>
				<duration>384</duration>
				<voice>1</voice>
				<type>half</type>
			</note>
			<direction placement="above">
				<direction-type>
					<words>(Ⅰ⁻⁵)¹</words>
				</direction-type>
			</direction>
			<note>
				<pitch>
					<step>C</step>
					<octave>4</octave>
				</pitch>
				<duration>384</duration>
				<voice>1</voice>
				<type>half</type>
			</note>
		</measure>
		<measure number="47">
			<direction placement="above">
				<direction-type>
					<words>Ⅴ³</words>
				</direction-type>
			</direction>
			<note>
				<pitch>
					<step>B</step>
					<octave>4</octave>
				</pitch>
				<duration>384</duration>
				<voice>1</voice>
				<type>half</type>
			</note>
			<direction placement="above">
				<direction-type>
					<words>Ⅰ¹</words>
				</direction-type>
			</direction>
			<note>
				<pitch>
					<step>C</step>
					<octave>5</octave>
				</pitch>
				<duration>384</duration>
				<voice>1</voice>
				<type>half</type>
			</note>
		</measure>
		<measure number="48">
			<direction placement="above">
				<direction-type>
					<words>Ⅴ³</words>
				</direction-type>
			</direction>
			<note>
				<pitch>
					<step>B</step>
					<octave>4</octave>
				</pitch>
				<duration>384</duration>
				<voice>1</voice>
				<type>half</type>
			</note>
			<direction placement="above">
				<direction-type>
					<words>Ⅰ⁵</words>
				</direction-type>
			</direction>
			<note>
				<pitch>
					<step>G</step>
					<octave>4</octave>
				</pitch>
				<duration>384</duration>
				<voice>1</voice>
				<type>half</type>
			</note>
			<barline location="right">
				<bar-style>light-heavy</bar-style>
			</barline>
		</measure>
	</part>
	<part id="P2">
		<measure number="1">
			<attributes>
				<divisions>192</divisions>
				<key>
					<fifths>0</fifths>
					<mode>major</mode>
				</key>
				<time symbol="common">
					<beats>4</beats>
					<beat-type>4</beat-type>
				</time>
				<staves>1</staves>
				<clef>
					<sign>C</sign>
					<line>3</line>
				</clef>
				<staff-details>
					<staff-lines>5</staff-lines>
				</staff-details>
				<transpose>
					<diatonic>0</diatonic>
					<chromatic>0</chromatic>
					<octave-change>0</octave-change>
				</transpose>
			</attributes>
			<direction placement="above">
				<direction-type>
					<words>open position</words>
				</direction-type>
			</direction>
			<note>
				<pitch>
					<step>E</step>
					<octave>4</octave>
				</pitch>
				<duration>384</duration>
				<voice>1</voice>
				<type>half</type>
			</note>
			<note>
				<pitch>
					<step>G</step>
					<octave>4</octave>
				</pitch>
				<duration>384</duration>
				<voice>1</voice>
				<type>half</type>
			</note>
		</measure>
		<measure number="2">
			<note>
				<pitch>
					<step>E</step>
					<octave>4</octave>
				</pitch>
				<duration>384</duration>
				<voice>1</voice>
				<type>half</type>
			</note>
			<note>
				<pitch>
					<step>D</step>
					<octave>4</octave>
				</pitch>
				<duration>384</duration>
				<voice>1</voice>
				<type>half</type>
			</note>
		</measure>
		<measure number="3">
			<note>
				<pitch>
					<step>E</step>
					<octave>4</octave>
				</pitch>
				<duration>384</duration>
				<voice>1</voice>
				<type>half</type>
			</note>
			<note>
				<pitch>
					<step>C</step>
					<octave>4</octave>
				</pitch>
				<duration>384</duration>
				<voice>1</voice>
				<type>half</type>
			</note>
			<barline location="right">
				<bar-style>light-light</bar-style>
			</barline>
		</measure>
		<measure number="4">
			<note>
				<pitch>
					<step>C</step>
					<octave>4</octave>
				</pitch>
				<duration>768</duration>
				<voice>1</voice>
				<type>whole</type>
			</note>
		</measure>
		<measure number="5">
			<note>
				<pitch>
					<step>C</step>
					<octave>4</octave>
				</pitch>
				<duration>384</duration>
				<voice>1</voice>
				<type>half</type>
			</note>
			<note>
				<pitch>
					<step>A</step>
					<octave>3</octave>
				</pitch>
				<duration>384</duration>
				<voice>1</voice>
				<type>half</type>
			</note>
		</measure>
		<measure number="6">
			<note>
				<pitch>
					<step>C</step>
					<octave>4</octave>
				</pitch>
				<duration>384</duration>
				<voice>1</voice>
				<type>half</type>
			</note>
			<note>
				<pitch>
					<step>D</step>
					<octave>4</octave>
				</pitch>
				<duration>384</duration>
				<voice>1</voice>
				<type>half</type>
			</note>
			<barline location="right">
				<bar-style>light-light</bar-style>
			</barline>
		</measure>
		<measure number="7">
			<note>
				<pitch>
					<step>G</step>
					<octave>4</octave>
				</pitch>
				<duration>384</duration>
				<voice>1</voice>
				<type>half</type>
			</note>
			<note>
				<pitch>
					<step>A</step>
					<octave>4</octave>
				</pitch>
				<duration>384</duration>
				<voice>1</voice>
				<type>half</type>
			</note>
		</measure>
		<measure number="8">
			<note>
				<pitch>
					<step>G</step>
					<octave>4</octave>
				</pitch>
				<duration>768</duration>
				<voice>1</voice>
				<type>whole</type>
			</note>
		</measure>
		<measure number="9">
			<note>
				<pitch>
					<step>G</step>
					<octave>4</octave>
				</pitch>
				<duration>384</duration>
				<voice>1</voice>
				<type>half</type>
			</note>
			<note>
				<pitch>
					<step>B</step>
					<octave>4</octave>
				</pitch>
				<duration>384</duration>
				<voice>1</voice>
				<type>half</type>
			</note>
		</measure>
		<measure number="10">
			<note>
				<pitch>
					<step>G</step>
					<octave>4</octave>
				</pitch>
				<duration>384</duration>
				<voice>1</voice>
				<type>half</type>
			</note>
			<note>
				<pitch>
					<step>F</step>
					<octave>4</octave>
				</pitch>
				<duration>384</duration>
				<voice>1</voice>
				<type>half</type>
			</note>
			<barline location="right">
				<bar-style>light-light</bar-style>
			</barline>
		</measure>
		<measure number="11">
			<direction placement="above">
				<direction-type>
					<words>close position</words>
				</direction-type>
			</direction>
			<note>
				<pitch>
					<step>G</step>
					<octave>4</octave>
				</pitch>
				<duration>384</duration>
				<voice>1</voice>
				<type>half</type>
			</note>
			<note>
				<pitch>
					<step>B</step>
					<octave>4</octave>
				</pitch>
				<duration>384</duration>
				<voice>1</voice>
				<type>half</type>
			</note>
		</measure>
		<measure number="12">
			<note>
				<pitch>
					<step>G</step>
					<octave>4</octave>
				</pitch>
				<duration>768</duration>
				<voice>1</voice>
				<type>whole</type>
			</note>
		</measure>
		<measure number="13">
			<note>
				<pitch>
					<step>G</step>
					<octave>4</octave>
				</pitch>
				<duration>384</duration>
				<voice>1</voice>
				<type>half</type>
			</note>
			<note>
				<pitch>
					<step>F</step>
					<octave>4</octave>
				</pitch>
				<duration>384</duration>
				<voice>1</voice>
				<type>half</type>
			</note>
			<barline location="right">
				<bar-style>light-light</bar-style>
			</barline>
		</measure>
		<measure number="14">
			<note>
				<pitch>
					<step>E</step>
					<octave>4</octave>
				</pitch>
				<duration>384</duration>
				<voice>1</voice>
				<type>half</type>
			</note>
			<note>
				<pitch>
					<step>F</step>
					<octave>4</octave>
				</pitch>
				<duration>384</duration>
				<voice>1</voice>
				<type>half</type>
			</note>
		</measure>
		<measure number="15">
			<note>
				<pitch>
					<step>E</step>
					<octave>4</octave>
				</pitch>
				<duration>384</duration>
				<voice>1</voice>
				<type>half</type>
			</note>
			<note>
				<pitch>
					<step>C</step>
					<octave>4</octave>
				</pitch>
				<duration>384</duration>
				<voice>1</voice>
				<type>half</type>
			</note>
		</measure>
		<measure number="16">
			<note>
				<pitch>
					<step>E</step>
					<octave>4</octave>
				</pitch>
				<duration>384</duration>
				<voice>1</voice>
				<type>half</type>
			</note>
			<note>
				<pitch>
					<step>G</step>
					<octave>4</octave>
				</pitch>
				<duration>384</duration>
				<voice>1</voice>
				<type>half</type>
			</note>
			<barline location="right">
				<bar-style>light-light</bar-style>
			</barline>
		</measure>
		<measure number="17">
			<note>
				<pitch>
					<step>C</step>
					<octave>4</octave>
				</pitch>
				<duration>768</duration>
				<voice>1</voice>
				<type>whole</type>
			</note>
		</measure>
		<measure number="18">
			<note>
				<pitch>
					<step>C</step>
					<octave>4</octave>
				</pitch>
				<duration>384</duration>
				<voice>1</voice>
				<type>half</type>
			</note>
			<note>
				<pitch>
					<step>B</step>
					<octave>3</octave>
				</pitch>
				<duration>384</duration>
				<voice>1</voice>
				<type>half</type>
			</note>
		</measure>
		<measure number="19">
			<note>
				<pitch>
					<step>C</step>
					<octave>4</octave>
				</pitch>
				<duration>384</duration>
				<voice>1</voice>
				<type>half</type>
			</note>
			<note>
				<pitch>
					<step>D</step>
					<octave>4</octave>
				</pitch>
				<duration>384</duration>
				<voice>1</voice>
				<type>half</type>
			</note>
		</measure>
		<measure number="20">
			<note>
				<pitch>
					<step>C</step>
					<octave>4</octave>
				</pitch>
				<duration>384</duration>
				<voice>1</voice>
				<type>half</type>
			</note>
			<note>
				<pitch>
					<step>A</step>
					<octave>3</octave>
				</pitch>
				<duration>384</duration>
				<voice>1</voice>
				<type>half</type>
			</note>
			<barline location="right">
				<bar-style>light-light</bar-style>
			</barline>
		</measure>
		<measure number="21">
			<direction placement="above">
				<direction-type>
					<words>open position</words>
				</direction-type>
			</direction>
			<note>
				<pitch>
					<step>A</step>
					<octave>4</octave>
				</pitch>
				<duration>384</duration>
				<voice>1</voice>
				<type>half</type>
			</note>
			<note>
				<pitch>
					<step>C</step>
					<octave>5</octave>
				</pitch>
				<duration>384</duration>
				<voice>1</voice>
				<type>half</type>
			</note>
		</measure>
		<measure number="22">
			<note>
				<pitch>
					<step>A</step>
					<octave>4</octave>
				</pitch>
				<duration>384</duration>
				<voice>1</voice>
				<type>half</type>
			</note>
			<note>
				<pitch>
					<step>G</step>
					<octave>4</octave>
				</pitch>
				<duration>384</duration>
				<voice>1</voice>
				<type>half</type>
			</note>
		</measure>
		<measure number="23">
			<note>
				<pitch>
					<step>A</step>
					<octave>4</octave>
				</pitch>
				<duration>384</duration>
				<voice>1</voice>
				<type>half</type>
			</note>
			<note>
				<pitch>
					<step>G</step>
					<octave>4</octave>
				</pitch>
				<duration>384</duration>
				<voice>1</voice>
				<type>half</type>
			</note>
			<barline location="right">
				<bar-style>light-light</bar-style>
			</barline>
		</measure>
		<measure number="24">
			<note>
				<pitch>
					<step>F</step>
					<octave>4</octave>
				</pitch>
				<duration>384</duration>
				<voice>1</voice>
				<type>half</type>
			</note>
			<note>
				<pitch>
					<step>D</step>
					<octave>4</octave>
				</pitch>
				<duration>384</duration>
				<voice>1</voice>
				<type>half</type>
			</note>
		</measure>
		<measure number="25">
			<note>
				<pitch>
					<step>F</step>
					<octave>4</octave>
				</pitch>
				<duration>384</duration>
				<voice>1</voice>
				<type>half</type>
			</note>
			<note>
				<pitch>
					<step>G</step>
					<octave>4</octave>
				</pitch>
				<duration>384</duration>
				<voice>1</voice>
				<type>half</type>
			</note>
			<barline location="right">
				<bar-style>light-light</bar-style>
			</barline>
		</measure>
		<measure number="26">
			<note>
				<pitch>
					<step>C</step>
					<octave>4</octave>
				</pitch>
				<duration>384</duration>
				<voice>1</voice>
				<type>half</type>
			</note>
			<note>
				<pitch>
					<step>B</step>
					<octave>3</octave>
				</pitch>
				<duration>384</duration>
				<voice>1</voice>
				<type>half</type>
			</note>
		</measure>
		<measure number="27">
			<note>
				<pitch>
					<step>C</step>
					<octave>4</octave>
				</pitch>
				<duration>384</duration>
				<voice>1</voice>
				<type>half</type>
			</note>
			<note>
				<pitch>
					<step>E</step>
					<octave>4</octave>
				</pitch>
				<duration>384</duration>
				<voice>1</voice>
				<type>half</type>
			</note>
			<barline location="right">
				<bar-style>light-light</bar-style>
			</barline>
		</measure>
		<measure number="28">
			<direction placement="above">
				<direction-type>
					<words>close position</words>
				</direction-type>
			</direction>
			<note>
				<pitch>
					<step>C</step>
					<octave>4</octave>
				</pitch>
				<duration>384</duration>
				<voice>1</voice>
				<type>half</type>
			</note>
			<note>
				<pitch>
					<step>E</step>
					<octave>4</octave>
				</pitch>
				<duration>384</duration>
				<voice>1</voice>
				<type>half</type>
			</note>
		</measure>
		<measure number="29">
			<note>
				<pitch>
					<step>C</step>
					<octave>4</octave>
				</pitch>
				<duration>768</duration>
				<voice>1</voice>
				<type>whole</type>
			</note>
		</measure>
		<measure number="30">
			<note>
				<pitch>
					<step>C</step>
					<octave>4</octave>
				</pitch>
				<duration>384</duration>
				<voice>1</voice>
				<type>half</type>
			</note>
			<note>
				<pitch>
					<step>B</step>
					<octave>3</octave>
				</pitch>
				<duration>384</duration>
				<voice>1</voice>
				<type>half</type>
			</note>
			<barline location="right">
				<bar-style>light-light</bar-style>
			</barline>
		</measure>
		<measure number="31">
			<note>
				<pitch>
					<step>A</step>
					<octave>4</octave>
				</pitch>
				<duration>384</duration>
				<voice>1</voice>
				<type>half</type>
			</note>
			<note>
				<pitch>
					<step>G</step>
					<octave>4</octave>
				</pitch>
				<duration>384</duration>
				<voice>1</voice>
				<type>half</type>
			</note>
		</measure>
		<measure number="32">
			<note>
				<pitch>
					<step>A</step>
					<octave>4</octave>
				</pitch>
				<duration>384</duration>
				<voice>1</voice>
				<type>half</type>
			</note>
			<note>
				<pitch>
					<step>C</step>
					<octave>5</octave>
				</pitch>
				<duration>384</duration>
				<voice>1</voice>
				<type>half</type>
			</note>
			<barline location="right">
				<bar-style>light-light</bar-style>
			</barline>
		</measure>
		<measure number="33">
			<note>
				<pitch>
					<step>F</step>
					<octave>4</octave>
				</pitch>
				<duration>384</duration>
				<voice>1</voice>
				<type>half</type>
			</note>
			<note>
				<pitch>
					<step>D</step>
					<octave>4</octave>
				</pitch>
				<duration>384</duration>
				<voice>1</voice>
				<type>half</type>
			</note>
		</measure>
		<measure number="34">
			<note>
				<pitch>
					<step>F</step>
					<octave>4</octave>
				</pitch>
				<duration>384</duration>
				<voice>1</voice>
				<type>half</type>
			</note>
			<note>
				<pitch>
					<step>G</step>
					<octave>4</octave>
				</pitch>
				<duration>384</duration>
				<voice>1</voice>
				<type>half</type>
			</note>
			<barline location="right">
				<bar-style>light-light</bar-style>
			</barline>
		</measure>
		<measure number="35">
			<direction placement="above">
				<direction-type>
					<words>open position</words>
				</direction-type>
			</direction>
			<note>
				<pitch>
					<step>B</step>
					<octave>3</octave>
				</pitch>
				<duration>384</duration>
				<voice>1</voice>
				<type>half</type>
			</note>
			<note>
				<pitch>
					<step>G</step>
					<octave>3</octave>
				</pitch>
				<duration>384</duration>
				<voice>1</voice>
				<type>half</type>
			</note>
		</measure>
		<measure number="36">
			<note>
				<pitch>
					<step>B</step>
					<octave>3</octave>
				</pitch>
				<duration>384</duration>
				<voice>1</voice>
				<type>half</type>
			</note>
			<note>
				<pitch>
					<step>C</step>
					<octave>4</octave>
				</pitch>
				<duration>384</duration>
				<voice>1</voice>
				<type>half</type>
			</note>
			<barline location="right">
				<bar-style>light-light</bar-style>
			</barline>
		</measure>
		<measure number="37">
			<note>
				<pitch>
					<step>G</step>
					<octave>4</octave>
				</pitch>
				<duration>768</duration>
				<voice>1</voice>
				<type>whole</type>
			</note>
		</measure>
		<measure number="38">
			<note>
				<pitch>
					<step>G</step>
					<octave>4</octave>
				</pitch>
				<duration>384</duration>
				<voice>1</voice>
				<type>half</type>
			</note>
			<note>
				<pitch>
					<step>E</step>
					<octave>4</octave>
				</pitch>
				<duration>384</duration>
				<voice>1</voice>
				<type>half</type>
			</note>
		</measure>
		<measure number="39">
			<note>
				<pitch>
					<step>G</step>
					<octave>4</octave>
				</pitch>
				<duration>384</duration>
				<voice>1</voice>
				<type>half</type>
			</note>
			<note>
				<pitch>
					<step>E</step>
					<octave>4</octave>
				</pitch>
				<duration>384</duration>
				<voice>1</voice>
				<type>half</type>
			</note>
			<barline location="right">
				<bar-style>light-light</bar-style>
			</barline>
		</measure>
		<measure number="40">
			<note>
				<pitch>
					<step>D</step>
					<octave>4</octave>
				</pitch>
				<duration>384</duration>
				<voice>1</voice>
				<type>half</type>
			</note>
			<note>
				<pitch>
					<step>E</step>
					<octave>4</octave>
				</pitch>
				<duration>384</duration>
				<voice>1</voice>
				<type>half</type>
			</note>
		</measure>
		<measure number="41">
			<note>
				<pitch>
					<step>D</step>
					<octave>4</octave>
				</pitch>
				<duration>384</duration>
				<voice>1</voice>
				<type>half</type>
			</note>
			<note>
				<pitch>
					<step>C</step>
					<octave>4</octave>
				</pitch>
				<duration>384</duration>
				<voice>1</voice>
				<type>half</type>
			</note>
			<barline location="right">
				<bar-style>light-light</bar-style>
			</barline>
		</measure>
		<measure number="42">
			<direction placement="above">
				<direction-type>
					<words>close position</words>
				</direction-type>
			</direction>
			<note>
				<pitch>
					<step>D</step>
					<octave>4</octave>
				</pitch>
				<duration>384</duration>
				<voice>1</voice>
				<type>half</type>
			</note>
			<note>
				<pitch>
					<step>C</step>
					<octave>4</octave>
				</pitch>
				<duration>384</duration>
				<voice>1</voice>
				<type>half</type>
			</note>
		</measure>
		<measure number="43">
			<note>
				<pitch>
					<step>D</step>
					<octave>4</octave>
				</pitch>
				<duration>384</duration>
				<voice>1</voice>
				<type>half</type>
			</note>
			<note>
				<pitch>
					<step>C</step>
					<octave>4</octave>
				</pitch>
				<duration>384</duration>
				<voice>1</voice>
				<type>half</type>
			</note>
		</measure>
		<measure number="44">
			<note>
				<pitch>
					<step>B</step>
					<octave>3</octave>
				</pitch>
				<duration>384</duration>
				<voice>1</voice>
				<type>half</type>
			</note>
			<note>
				<pitch>
					<step>C</step>
					<octave>4</octave>
				</pitch>
				<duration>384</duration>
				<voice>1</voice>
				<type>half</type>
			</note>
		</measure>
		<measure number="45">
			<note>
				<pitch>
					<step>B</step>
					<octave>3</octave>
				</pitch>
				<duration>384</duration>
				<voice>1</voice>
				<type>half</type>
			</note>
			<note>
				<pitch>
					<step>G</step>
					<octave>3</octave>
				</pitch>
				<duration>384</duration>
				<voice>1</voice>
				<type>half</type>
			</note>
		</measure>
		<measure number="46">
			<note>
				<pitch>
					<step>B</step>
					<octave>3</octave>
				</pitch>
				<duration>384</duration>
				<voice>1</voice>
				<type>half</type>
			</note>
			<note>
				<pitch>
					<step>C</step>
					<octave>4</octave>
				</pitch>
				<duration>384</duration>
				<voice>1</voice>
				<type>half</type>
			</note>
		</measure>
		<measure number="47">
			<note>
				<pitch>
					<step>G</step>
					<octave>4</octave>
				</pitch>
				<duration>768</duration>
				<voice>1</voice>
				<type>whole</type>
			</note>
		</measure>
		<measure number="48">
			<note>
				<pitch>
					<step>G</step>
					<octave>4</octave>
				</pitch>
				<duration>384</duration>
				<voice>1</voice>
				<type>half</type>
			</note>
			<note>
				<pitch>
					<step>E</step>
					<octave>4</octave>
				</pitch>
				<duration>384</duration>
				<voice>1</voice>
				<type>half</type>
			</note>
			<barline location="right">
				<bar-style>light-heavy</bar-style>
			</barline>
		</measure>
	</part>
	<part id="P3">
		<measure number="1">
			<attributes>
				<divisions>192</divisions>
				<key>
					<fifths>0</fifths>
					<mode>major</mode>
				</key>
				<time symbol="common">
					<beats>4</beats>
					<beat-type>4</beat-type>
				</time>
				<staves>1</staves>
				<clef>
					<sign>C</sign>
					<line>4</line>
				</clef>
				<staff-details>
					<staff-lines>5</staff-lines>
				</staff-details>
				<transpose>
					<diatonic>0</diatonic>
					<chromatic>0</chromatic>
					<octave-change>0</octave-change>
				</transpose>
			</attributes>
			<note>
				<pitch>
					<step>G</step>
					<octave>3</octave>
				</pitch>
				<duration>384</duration>
				<voice>1</voice>
				<type>half</type>
			</note>
			<note>
				<pitch>
					<step>B</step>
					<octave>3</octave>
				</pitch>
				<duration>384</duration>
				<voice>1</voice>
				<type>half</type>
			</note>
		</measure>
		<measure number="2">
			<note>
				<pitch>
					<step>G</step>
					<octave>3</octave>
				</pitch>
				<duration>768</duration>
				<voice>1</voice>
				<type>whole</type>
			</note>
		</measure>
		<measure number="3">
			<note>
				<pitch>
					<step>G</step>
					<octave>3</octave>
				</pitch>
				<duration>384</duration>
				<voice>1</voice>
				<type>half</type>
			</note>
			<note>
				<pitch>
					<step>F</step>
					<octave>3</octave>
				</pitch>
				<duration>384</duration>
				<voice>1</voice>
				<type>half</type>
			</note>
			<barline location="right">
				<bar-style>light-light</bar-style>
			</barline>
		</measure>
		<measure number="4">
			<note>
				<pitch>
					<step>E</step>
					<octave>3</octave>
				</pitch>
				<duration>384</duration>
				<voice>1</voice>
				<type>half</type>
			</note>
			<note>
				<pitch>
					<step>F</step>
					<octave>3</octave>
				</pitch>
				<duration>384</duration>
				<voice>1</voice>
				<type>half</type>
			</note>
		</measure>
		<measure number="5">
			<note>
				<pitch>
					<step>E</step>
					<octave>3</octave>
				</pitch>
				<duration>384</duration>
				<voice>1</voice>
				<type>half</type>
			</note>
			<note>
				<pitch>
					<step>C</step>
					<octave>3</octave>
				</pitch>
				<duration>384</duration>
				<voice>1</voice>
				<type>half</type>
			</note>
		</measure>
		<measure number="6">
			<note>
				<pitch>
					<step>E</step>
					<octave>3</octave>
				</pitch>
				<duration>384</duration>
				<voice>1</voice>
				<type>half</type>
			</note>
			<note>
				<pitch>
					<step>G</step>
					<octave>3</octave>
				</pitch>
				<duration>384</duration>
				<voice>1</voice>
				<type>half</type>
			</note>
			<barline location="right">
				<bar-style>light-light</bar-style>
			</barline>
		</measure>
		<measure number="7">
			<note>
				<pitch>
					<step>C</step>
					<octave>4</octave>
				</pitch>
				<duration>768</duration>
				<voice>1</voice>
				<type>whole</type>
			</note>
		</measure>
		<measure number="8">
			<note>
				<pitch>
					<step>C</step>
					<octave>4</octave>
				</pitch>
				<duration>384</duration>
				<voice>1</voice>
				<type>half</type>
			</note>
			<note>
				<pitch>
					<step>B</step>
					<octave>3</octave>
				</pitch>
				<duration>384</duration>
				<voice>1</voice>
				<type>half</type>
			</note>
		</measure>
		<measure number="9">
			<note>
				<pitch>
					<step>C</step>
					<octave>4</octave>
				</pitch>
				<duration>384</duration>
				<voice>1</voice>
				<type>half</type>
			</note>
			<note>
				<pitch>
					<step>D</step>
					<octave>4</octave>
				</pitch>
				<duration>384</duration>
				<voice>1</voice>
				<type>half</type>
			</note>
		</measure>
		<measure number="10">
			<note>
				<pitch>
					<step>C</step>
					<octave>4</octave>
				</pitch>
				<duration>384</duration>
				<voice>1</voice>
				<type>half</type>
			</note>
			<note>
				<pitch>
					<step>A</step>
					<octave>3</octave>
				</pitch>
				<duration>384</duration>
				<voice>1</voice>
				<type>half</type>
			</note>
			<barline location="right">
				<bar-style>light-light</bar-style>
			</barline>
		</measure>
		<measure number="11">
			<note>
				<pitch>
					<step>E</step>
					<octave>4</octave>
				</pitch>
				<duration>384</duration>
				<voice>1</voice>
				<type>half</type>
			</note>
			<note>
				<pitch>
					<step>G</step>
					<octave>4</octave>
				</pitch>
				<duration>384</duration>
				<voice>1</voice>
				<type>half</type>
			</note>
		</measure>
		<measure number="12">
			<note>
				<pitch>
					<step>E</step>
					<octave>4</octave>
				</pitch>
				<duration>384</duration>
				<voice>1</voice>
				<type>half</type>
			</note>
			<note>
				<pitch>
					<step>D</step>
					<octave>4</octave>
				</pitch>
				<duration>384</duration>
				<voice>1</voice>
				<type>half</type>
			</note>
		</measure>
		<measure number="13">
			<note>
				<pitch>
					<step>E</step>
					<octave>4</octave>
				</pitch>
				<duration>384</duration>
				<voice>1</voice>
				<type>half</type>
			</note>
			<note>
				<pitch>
					<step>C</step>
					<octave>4</octave>
				</pitch>
				<duration>384</duration>
				<voice>1</voice>
				<type>half</type>
			</note>
			<barline location="right">
				<bar-style>light-light</bar-style>
			</barline>
		</measure>
		<measure number="14">
			<note>
				<pitch>
					<step>C</step>
					<octave>4</octave>
				</pitch>
				<duration>768</duration>
				<voice>1</voice>
				<type>whole</type>
			</note>
		</measure>
		<measure number="15">
			<note>
				<pitch>
					<step>C</step>
					<octave>4</octave>
				</pitch>
				<duration>384</duration>
				<voice>1</voice>
				<type>half</type>
			</note>
			<note>
				<pitch>
					<step>A</step>
					<octave>3</octave>
				</pitch>
				<duration>384</duration>
				<voice>1</voice>
				<type>half</type>
			</note>
		</measure>
		<measure number="16">
			<note>
				<pitch>
					<step>C</step>
					<octave>4</octave>
				</pitch>
				<duration>384</duration>
				<voice>1</voice>
				<type>half</type>
			</note>
			<note>
				<pitch>
					<step>D</step>
					<octave>4</octave>
				</pitch>
				<duration>384</duration>
				<voice>1</voice>
				<type>half</type>
			</note>
			<barline location="right">
				<bar-style>light-light</bar-style>
			</barline>
		</measure>
		<measure number="17">
			<note>
				<pitch>
					<step>G</step>
					<octave>3</octave>
				</pitch>
				<duration>384</duration>
				<voice>1</voice>
				<type>half</type>
			</note>
			<note>
				<pitch>
					<step>A</step>
					<octave>3</octave>
				</pitch>
				<duration>384</duration>
				<voice>1</voice>
				<type>half</type>
			</note>
		</measure>
		<measure number="18">
			<note>
				<pitch>
					<step>G</step>
					<octave>3</octave>
				</pitch>
				<duration>768</duration>
				<voice>1</voice>
				<type>whole</type>
			</note>
		</measure>
		<measure number="19">
			<note>
				<pitch>
					<step>G</step>
					<octave>3</octave>
				</pitch>
				<duration>384</duration>
				<voice>1</voice>
				<type>half</type>
			</note>
			<note>
				<pitch>
					<step>B</step>
					<octave>3</octave>
				</pitch>
				<duration>384</duration>
				<voice>1</voice>
				<type>half</type>
			</note>
		</measure>
		<measure number="20">
			<note>
				<pitch>
					<step>G</step>
					<octave>3</octave>
				</pitch>
				<duration>384</duration>
				<voice>1</voice>
				<type>half</type>
			</note>
			<note>
				<pitch>
					<step>F</step>
					<octave>3</octave>
				</pitch>
				<duration>384</duration>
				<voice>1</voice>
				<type>half</type>
			</note>
			<barline location="right">
				<bar-style>light-light</bar-style>
			</barline>
		</measure>
		<measure number="21">
			<note>
				<pitch>
					<step>C</step>
					<octave>4</octave>
				</pitch>
				<duration>384</duration>
				<voice>1</voice>
				<type>half</type>
			</note>
			<note>
				<pitch>
					<step>E</step>
					<octave>4</octave>
				</pitch>
				<duration>384</duration>
				<voice>1</voice>
				<type>half</type>
			</note>
		</measure>
		<measure number="22">
			<note>
				<pitch>
					<step>C</step>
					<octave>4</octave>
				</pitch>
				<duration>768</duration>
				<voice>1</voice>
				<type>whole</type>
			</note>
		</measure>
		<measure number="23">
			<note>
				<pitch>
					<step>C</step>
					<octave>4</octave>
				</pitch>
				<duration>384</duration>
				<voice>1</voice>
				<type>half</type>
			</note>
			<note>
				<pitch>
					<step>B</step>
					<octave>3</octave>
				</pitch>
				<duration>384</duration>
				<voice>1</voice>
				<type>half</type>
			</note>
			<barline location="right">
				<bar-style>light-light</bar-style>
			</barline>
		</measure>
		<measure number="24">
			<note>
				<pitch>
					<step>A</step>
					<octave>3</octave>
				</pitch>
				<duration>384</duration>
				<voice>1</voice>
				<type>half</type>
			</note>
			<note>
				<pitch>
					<step>G</step>
					<octave>3</octave>
				</pitch>
				<duration>384</duration>
				<voice>1</voice>
				<type>half</type>
			</note>
		</measure>
		<measure number="25">
			<note>
				<pitch>
					<step>A</step>
					<octave>3</octave>
				</pitch>
				<duration>384</duration>
				<voice>1</voice>
				<type>half</type>
			</note>
			<note>
				<pitch>
					<step>C</step>
					<octave>4</octave>
				</pitch>
				<duration>384</duration>
				<voice>1</voice>
				<type>half</type>
			</note>
			<barline location="right">
				<bar-style>light-light</bar-style>
			</barline>
		</measure>
		<measure number="26">
			<note>
				<pitch>
					<step>F</step>
					<octave>3</octave>
				</pitch>
				<duration>384</duration>
				<voice>1</voice>
				<type>half</type>
			</note>
			<note>
				<pitch>
					<step>D</step>
					<octave>3</octave>
				</pitch>
				<duration>384</duration>
				<voice>1</voice>
				<type>half</type>
			</note>
		</measure>
		<measure number="27">
			<note>
				<pitch>
					<step>F</step>
					<octave>3</octave>
				</pitch>
				<duration>384</duration>
				<voice>1</voice>
				<type>half</type>
			</note>
			<note>
				<pitch>
					<step>G</step>
					<octave>3</octave>
				</pitch>
				<duration>384</duration>
				<voice>1</voice>
				<type>half</type>
			</note>
			<barline location="right">
				<bar-style>light-light</bar-style>
			</barline>
		</measure>
		<measure number="28">
			<note>
				<pitch>
					<step>A</step>
					<octave>3</octave>
				</pitch>
				<duration>384</duration>
				<voice>1</voice>
				<type>half</type>
			</note>
			<note>
				<pitch>
					<step>C</step>
					<octave>4</octave>
				</pitch>
				<duration>384</duration>
				<voice>1</voice>
				<type>half</type>
			</note>
		</measure>
		<measure number="29">
			<note>
				<pitch>
					<step>A</step>
					<octave>3</octave>
				</pitch>
				<duration>384</duration>
				<voice>1</voice>
				<type>half</type>
			</note>
			<note>
				<pitch>
					<step>G</step>
					<octave>3</octave>
				</pitch>
				<duration>384</duration>
				<voice>1</voice>
				<type>half</type>
			</note>
		</measure>
		<measure number="30">
			<note>
				<pitch>
					<step>A</step>
					<octave>3</octave>
				</pitch>
				<duration>384</duration>
				<voice>1</voice>
				<type>half</type>
			</note>
			<note>
				<pitch>
					<step>G</step>
					<octave>3</octave>
				</pitch>
				<duration>384</duration>
				<voice>1</voice>
				<type>half</type>
			</note>
			<barline location="right">
				<bar-style>light-light</bar-style>
			</barline>
		</measure>
		<measure number="31">
			<note>
				<pitch>
					<step>F</step>
					<octave>4</octave>
				</pitch>
				<duration>384</duration>
				<voice>1</voice>
				<type>half</type>
			</note>
			<note>
				<pitch>
					<step>D</step>
					<octave>4</octave>
				</pitch>
				<duration>384</duration>
				<voice>1</voice>
				<type>half</type>
			</note>
		</measure>
		<measure number="32">
			<note>
				<pitch>
					<step>F</step>
					<octave>4</octave>
				</pitch>
				<duration>384</duration>
				<voice>1</voice>
				<type>half</type>
			</note>
			<note>
				<pitch>
					<step>G</step>
					<octave>4</octave>
				</pitch>
				<duration>384</duration>
				<voice>1</voice>
				<type>half</type>
			</note>
			<barline location="right">
				<bar-style>light-light</bar-style>
			</barline>
		</measure>
		<measure number="33">
			<note>
				<pitch>
					<step>C</step>
					<octave>4</octave>
				</pitch>
				<duration>384</duration>
				<voice>1</voice>
				<type>half</type>
			</note>
			<note>
				<pitch>
					<step>B</step>
					<octave>3</octave>
				</pitch>
				<duration>384</duration>
				<voice>1</voice>
				<type>half</type>
			</note>
		</measure>
		<measure number="34">
			<note>
				<pitch>
					<step>C</step>
					<octave>4</octave>
				</pitch>
				<duration>384</duration>
				<voice>1</voice>
				<type>half</type>
			</note>
			<note>
				<pitch>
					<step>E</step>
					<octave>4</octave>
				</pitch>
				<duration>384</duration>
				<voice>1</voice>
				<type>half</type>
			</note>
			<barline location="right">
				<bar-style>light-light</bar-style>
			</barline>
		</measure>
		<measure number="35">
			<note>
				<pitch>
					<step>D</step>
					<octave>3</octave>
				</pitch>
				<duration>384</duration>
				<voice>1</voice>
				<type>half</type>
			</note>
			<note>
				<pitch>
					<step>C</step>
					<octave>3</octave>
				</pitch>
				<duration>384</duration>
				<voice>1</voice>
				<type>half</type>
			</note>
		</measure>
		<measure number="36">
			<note>
				<pitch>
					<step>D</step>
					<octave>3</octave>
				</pitch>
				<duration>384</duration>
				<voice>1</voice>
				<type>half</type>
			</note>
			<note>
				<pitch>
					<step>C</step>
					<octave>3</octave>
				</pitch>
				<duration>384</duration>
				<voice>1</voice>
				<type>half</type>
			</note>
			<barline location="right">
				<bar-style>light-light</bar-style>
			</barline>
		</measure>
		<measure number="37">
			<note>
				<pitch>
					<step>B</step>
					<octave>3</octave>
				</pitch>
				<duration>384</duration>
				<voice>1</voice>
				<type>half</type>
			</note>
			<note>
				<pitch>
					<step>C</step>
					<octave>4</octave>
				</pitch>
				<duration>384</duration>
				<voice>1</voice>
				<type>half</type>
			</note>
		</measure>
		<measure number="38">
			<note>
				<pitch>
					<step>B</step>
					<octave>3</octave>
				</pitch>
				<duration>384</duration>
				<voice>1</voice>
				<type>half</type>
			</note>
			<note>
				<pitch>
					<step>G</step>
					<octave>3</octave>
				</pitch>
				<duration>384</duration>
				<voice>1</voice>
				<type>half</type>
			</note>
		</measure>
		<measure number="39">
			<note>
				<pitch>
					<step>B</step>
					<octave>3</octave>
				</pitch>
				<duration>384</duration>
				<voice>1</voice>
				<type>half</type>
			</note>
			<note>
				<pitch>
					<step>C</step>
					<octave>4</octave>
				</pitch>
				<duration>384</duration>
				<voice>1</voice>
				<type>half</type>
			</note>
			<barline location="right">
				<bar-style>light-light</bar-style>
			</barline>
		</measure>
		<measure number="40">
			<note>
				<pitch>
					<step>G</step>
					<octave>3</octave>
				</pitch>
				<duration>768</duration>
				<voice>1</voice>
				<type>whole</type>
			</note>
		</measure>
		<measure number="41">
			<note>
				<pitch>
					<step>G</step>
					<octave>3</octave>
				</pitch>
				<duration>384</duration>
				<voice>1</voice>
				<type>half</type>
			</note>
			<note>
				<pitch>
					<step>E</step>
					<octave>3</octave>
				</pitch>
				<duration>384</duration>
				<voice>1</voice>
				<type>half</type>
			</note>
			<barline location="right">
				<bar-style>light-light</bar-style>
			</barline>
		</measure>
		<measure number="42">
			<note>
				<pitch>
					<step>B</step>
					<octave>3</octave>
				</pitch>
				<duration>384</duration>
				<voice>1</voice>
				<type>half</type>
			</note>
			<note>
				<pitch>
					<step>G</step>
					<octave>3</octave>
				</pitch>
				<duration>384</duration>
				<voice>1</voice>
				<type>half</type>
			</note>
		</measure>
		<measure number="43">
			<note>
				<pitch>
					<step>B</step>
					<octave>3</octave>
				</pitch>
				<duration>384</duration>
				<voice>1</voice>
				<type>half</type>
			</note>
			<note>
				<pitch>
					<step>C</step>
					<octave>4</octave>
				</pitch>
				<duration>384</duration>
				<voice>1</voice>
				<type>half</type>
			</note>
		</measure>
		<measure number="44">
			<note>
				<pitch>
					<step>G</step>
					<octave>3</octave>
				</pitch>
				<duration>768</duration>
				<voice>1</voice>
				<type>whole</type>
			</note>
		</measure>
		<measure number="45">
			<note>
				<pitch>
					<step>G</step>
					<octave>3</octave>
				</pitch>
				<duration>384</duration>
				<voice>1</voice>
				<type>half</type>
			</note>
			<note>
				<pitch>
					<step>E</step>
					<octave>3</octave>
				</pitch>
				<duration>384</duration>
				<voice>1</voice>
				<type>half</type>
			</note>
		</measure>
		<measure number="46">
			<note>
				<pitch>
					<step>G</step>
					<octave>3</octave>
				</pitch>
				<duration>384</duration>
				<voice>1</voice>
				<type>half</type>
			</note>
			<note>
				<pitch>
					<step>E</step>
					<octave>3</octave>
				</pitch>
				<duration>384</duration>
				<voice>1</voice>
				<type>half</type>
			</note>
		</measure>
		<measure number="47">
			<note>
				<pitch>
					<step>D</step>
					<octave>4</octave>
				</pitch>
				<duration>384</duration>
				<voice>1</voice>
				<type>half</type>
			</note>
			<note>
				<pitch>
					<step>E</step>
					<octave>4</octave>
				</pitch>
				<duration>384</duration>
				<voice>1</voice>
				<type>half</type>
			</note>
		</measure>
		<measure number="48">
			<note>
				<pitch>
					<step>D</step>
					<octave>4</octave>
				</pitch>
				<duration>384</duration>
				<voice>1</voice>
				<type>half</type>
			</note>
			<note>
				<pitch>
					<step>C</step>
					<octave>4</octave>
				</pitch>
				<duration>384</duration>
				<voice>1</voice>
				<type>half</type>
			</note>
			<barline location="right">
				<bar-style>light-heavy</bar-style>
			</barline>
		</measure>
	</part>
	<part id="P4">
		<measure number="1">
			<attributes>
				<divisions>192</divisions>
				<key>
					<fifths>0</fifths>
					<mode>major</mode>
				</key>
				<time symbol="common">
					<beats>4</beats>
					<beat-type>4</beat-type>
				</time>
				<staves>1</staves>
				<clef>
					<sign>F</sign>
					<line>4</line>
				</clef>
				<staff-details>
					<staff-lines>5</staff-lines>
				</staff-details>
				<transpose>
					<diatonic>0</diatonic>
					<chromatic>0</chromatic>
					<octave-change>0</octave-change>
				</transpose>
			</attributes>
			<note>
				<pitch>
					<step>C</step>
					<octave>3</octave>
				</pitch>
				<duration>384</duration>
				<voice>1</voice>
				<type>half</type>
			</note>
			<note>
				<pitch>
					<step>G</step>
					<octave>2</octave>
				</pitch>
				<duration>384</duration>
				<voice>1</voice>
				<type>half</type>
			</note>
		</measure>
		<measure number="2">
			<note>
				<pitch>
					<step>C</step>
					<octave>3</octave>
				</pitch>
				<duration>384</duration>
				<voice>1</voice>
				<type>half</type>
			</note>
			<note>
				<pitch>
					<step>G</step>
					<octave>2</octave>
				</pitch>
				<duration>384</duration>
				<voice>1</voice>
				<type>half</type>
			</note>
			<note>
				<chord />
				<pitch>
					<step>G</step>
					<octave>3</octave>
				</pitch>
				<duration>384</duration>
				<voice>1</voice>
				<type>half</type>
			</note>
		</measure>
		<measure number="3">
			<note>
				<pitch>
					<step>C</step>
					<octave>3</octave>
				</pitch>
				<duration>384</duration>
				<voice>1</voice>
				<type>half</type>
			</note>
			<note>
				<pitch>
					<step>F</step>
					<octave>3</octave>
				</pitch>
				<duration>384</duration>
				<voice>1</voice>
				<type>half</type>
			</note>
			<barline location="right">
				<bar-style>light-light</bar-style>
			</barline>
		</measure>
		<measure number="4">
			<note>
				<pitch>
					<step>C</step>
					<octave>3</octave>
				</pitch>
				<duration>384</duration>
				<voice>1</voice>
				<type>half</type>
			</note>
			<note>
				<pitch>
					<step>F</step>
					<octave>2</octave>
				</pitch>
				<duration>384</duration>
				<voice>1</voice>
				<type>half</type>
			</note>
			<note>
				<chord />
				<pitch>
					<step>F</step>
					<octave>3</octave>
				</pitch>
				<duration>384</duration>
				<voice>1</voice>
				<type>half</type>
			</note>
		</measure>
		<measure number="5">
			<note>
				<pitch>
					<step>C</step>
					<octave>2</octave>
				</pitch>
				<duration>384</duration>
				<voice>1</voice>
				<type>half</type>
			</note>
			<note>
				<pitch>
					<step>F</step>
					<octave>2</octave>
				</pitch>
				<duration>384</duration>
				<voice>1</voice>
				<type>half</type>
			</note>
		</measure>
		<measure number="6">
			<note>
				<pitch>
					<step>C</step>
					<octave>3</octave>
				</pitch>
				<duration>384</duration>
				<voice>1</voice>
				<type>half</type>
			</note>
			<note>
				<pitch>
					<step>G</step>
					<octave>2</octave>
				</pitch>
				<duration>384</duration>
				<voice>1</voice>
				<type>half</type>
			</note>
			<barline location="right">
				<bar-style>light-light</bar-style>
			</barline>
		</measure>
		<measure number="7">
			<note>
				<pitch>
					<step>C</step>
					<octave>3</octave>
				</pitch>
				<duration>384</duration>
				<voice>1</voice>
				<type>half</type>
			</note>
			<note>
				<pitch>
					<step>F</step>
					<octave>2</octave>
				</pitch>
				<duration>384</duration>
				<voice>1</voice>
				<type>half</type>
			</note>
			<note>
				<chord />
				<pitch>
					<step>F</step>
					<octave>3</octave>
				</pitch>
				<duration>384</duration>
				<voice>1</voice>
				<type>half</type>
			</note>
		</measure>
		<measure number="8">
			<note>
				<pitch>
					<step>C</step>
					<octave>3</octave>
				</pitch>
				<duration>384</duration>
				<voice>1</voice>
				<type>half</type>
			</note>
			<note>
				<pitch>
					<step>G</step>
					<octave>2</octave>
				</pitch>
				<duration>384</duration>
				<voice>1</voice>
				<type>half</type>
			</note>
			<note>
				<chord />
				<pitch>
					<step>G</step>
					<octave>3</octave>
				</pitch>
				<duration>384</duration>
				<voice>1</voice>
				<type>half</type>
			</note>
		</measure>
		<measure number="9">
			<note>
				<pitch>
					<step>C</step>
					<octave>3</octave>
				</pitch>
				<duration>384</duration>
				<voice>1</voice>
				<type>half</type>
			</note>
			<note>
				<pitch>
					<step>G</step>
					<octave>2</octave>
				</pitch>
				<duration>384</duration>
				<voice>1</voice>
				<type>half</type>
			</note>
		</measure>
		<measure number="10">
			<note>
				<pitch>
					<step>C</step>
					<octave>3</octave>
				</pitch>
				<duration>384</duration>
				<voice>1</voice>
				<type>half</type>
			</note>
			<note>
				<pitch>
					<step>F</step>
					<octave>3</octave>
				</pitch>
				<duration>384</duration>
				<voice>1</voice>
				<type>half</type>
			</note>
			<barline location="right">
				<bar-style>light-light</bar-style>
			</barline>
		</measure>
		<measure number="11">
			<note>
				<pitch>
					<step>C</step>
					<octave>3</octave>
				</pitch>
				<duration>384</duration>
				<voice>1</voice>
				<type>half</type>
			</note>
			<note>
				<pitch>
					<step>G</step>
					<octave>2</octave>
				</pitch>
				<duration>384</duration>
				<voice>1</voice>
				<type>half</type>
			</note>
		</measure>
		<measure number="12">
			<note>
				<pitch>
					<step>C</step>
					<octave>3</octave>
				</pitch>
				<duration>384</duration>
				<voice>1</voice>
				<type>half</type>
			</note>
			<note>
				<pitch>
					<step>G</step>
					<octave>2</octave>
				</pitch>
				<duration>384</duration>
				<voice>1</voice>
				<type>half</type>
			</note>
			<note>
				<chord />
				<pitch>
					<step>G</step>
					<octave>3</octave>
				</pitch>
				<duration>384</duration>
				<voice>1</voice>
				<type>half</type>
			</note>
		</measure>
		<measure number="13">
			<note>
				<pitch>
					<step>C</step>
					<octave>3</octave>
				</pitch>
				<duration>384</duration>
				<voice>1</voice>
				<type>half</type>
			</note>
			<note>
				<pitch>
					<step>F</step>
					<octave>3</octave>
				</pitch>
				<duration>384</duration>
				<voice>1</voice>
				<type>half</type>
			</note>
			<barline location="right">
				<bar-style>light-light</bar-style>
			</barline>
		</measure>
		<measure number="14">
			<note>
				<pitch>
					<step>C</step>
					<octave>3</octave>
				</pitch>
				<duration>384</duration>
				<voice>1</voice>
				<type>half</type>
			</note>
			<note>
				<pitch>
					<step>F</step>
					<octave>2</octave>
				</pitch>
				<duration>384</duration>
				<voice>1</voice>
				<type>half</type>
			</note>
			<note>
				<chord />
				<pitch>
					<step>F</step>
					<octave>3</octave>
				</pitch>
				<duration>384</duration>
				<voice>1</voice>
				<type>half</type>
			</note>
		</measure>
		<measure number="15">
			<note>
				<pitch>
					<step>C</step>
					<octave>3</octave>
				</pitch>
				<duration>384</duration>
				<voice>1</voice>
				<type>half</type>
			</note>
			<note>
				<pitch>
					<step>F</step>
					<octave>3</octave>
				</pitch>
				<duration>384</duration>
				<voice>1</voice>
				<type>half</type>
			</note>
		</measure>
		<measure number="16">
			<note>
				<pitch>
					<step>C</step>
					<octave>3</octave>
				</pitch>
				<duration>384</duration>
				<voice>1</voice>
				<type>half</type>
			</note>
			<note>
				<pitch>
					<step>G</step>
					<octave>2</octave>
				</pitch>
				<duration>384</duration>
				<voice>1</voice>
				<type>half</type>
			</note>
			<barline location="right">
				<bar-style>light-light</bar-style>
			</barline>
		</measure>
		<measure number="17">
			<note>
				<pitch>
					<step>C</step>
					<octave>3</octave>
				</pitch>
				<duration>384</duration>
				<voice>1</voice>
				<type>half</type>
			</note>
			<note>
				<pitch>
					<step>F</step>
					<octave>2</octave>
				</pitch>
				<duration>384</duration>
				<voice>1</voice>
				<type>half</type>
			</note>
			<note>
				<chord />
				<pitch>
					<step>F</step>
					<octave>3</octave>
				</pitch>
				<duration>384</duration>
				<voice>1</voice>
				<type>half</type>
			</note>
		</measure>
		<measure number="18">
			<note>
				<pitch>
					<step>C</step>
					<octave>3</octave>
				</pitch>
				<duration>384</duration>
				<voice>1</voice>
				<type>half</type>
			</note>
			<note>
				<pitch>
					<step>G</step>
					<octave>2</octave>
				</pitch>
				<duration>384</duration>
				<voice>1</voice>
				<type>half</type>
			</note>
			<note>
				<chord />
				<pitch>
					<step>G</step>
					<octave>3</octave>
				</pitch>
				<duration>384</duration>
				<voice>1</voice>
				<type>half</type>
			</note>
		</measure>
		<measure number="19">
			<note>
				<pitch>
					<step>C</step>
					<octave>3</octave>
				</pitch>
				<duration>384</duration>
				<voice>1</voice>
				<type>half</type>
			</note>
			<note>
				<pitch>
					<step>G</step>
					<octave>2</octave>
				</pitch>
				<duration>384</duration>
				<voice>1</voice>
				<type>half</type>
			</note>
		</measure>
		<measure number="20">
			<note>
				<pitch>
					<step>C</step>
					<octave>3</octave>
				</pitch>
				<duration>384</duration>
				<voice>1</voice>
				<type>half</type>
			</note>
			<note>
				<pitch>
					<step>F</step>
					<octave>3</octave>
				</pitch>
				<duration>384</duration>
				<voice>1</voice>
				<type>half</type>
			</note>
			<barline location="right">
				<bar-style>light-light</bar-style>
			</barline>
		</measure>
		<measure number="21">
			<note>
				<pitch>
					<step>F</step>
					<octave>3</octave>
				</pitch>
				<duration>384</duration>
				<voice>1</voice>
				<type>half</type>
			</note>
			<note>
				<pitch>
					<step>C</step>
					<octave>3</octave>
				</pitch>
				<duration>384</duration>
				<voice>1</voice>
				<type>half</type>
			</note>
		</measure>
		<measure number="22">
			<note>
				<pitch>
					<step>F</step>
					<octave>3</octave>
				</pitch>
				<duration>384</duration>
				<voice>1</voice>
				<type>half</type>
			</note>
			<note>
				<pitch>
					<step>C</step>
					<octave>3</octave>
				</pitch>
				<duration>384</duration>
				<voice>1</voice>
				<type>half</type>
			</note>
			<note>
				<chord />
				<pitch>
					<step>C</step>
					<octave>4</octave>
				</pitch>
				<duration>384</duration>
				<voice>1</voice>
				<type>half</type>
			</note>
		</measure>
		<measure number="23">
			<note>
				<pitch>
					<step>F</step>
					<octave>3</octave>
				</pitch>
				<duration>384</duration>
				<voice>1</voice>
				<type>half</type>
			</note>
			<note>
				<pitch>
					<step>G</step>
					<octave>3</octave>
				</pitch>
				<duration>384</duration>
				<voice>1</voice>
				<type>half</type>
			</note>
			<barline location="right">
				<bar-style>light-light</bar-style>
			</barline>
		</measure>
		<measure number="24">
			<note>
				<pitch>
					<step>F</step>
					<octave>3</octave>
				</pitch>
				<duration>384</duration>
				<voice>1</voice>
				<type>half</type>
			</note>
			<note>
				<pitch>
					<step>G</step>
					<octave>3</octave>
				</pitch>
				<duration>384</duration>
				<voice>1</voice>
				<type>half</type>
			</note>
		</measure>
		<measure number="25">
			<note>
				<pitch>
					<step>F</step>
					<octave>3</octave>
				</pitch>
				<duration>384</duration>
				<voice>1</voice>
				<type>half</type>
			</note>
			<note>
				<pitch>
					<step>C</step>
					<octave>3</octave>
				</pitch>
				<duration>384</duration>
				<voice>1</voice>
				<type>half</type>
			</note>
			<barline location="right">
				<bar-style>light-light</bar-style>
			</barline>
		</measure>
		<measure number="26">
			<note>
				<pitch>
					<step>F</step>
					<octave>2</octave>
				</pitch>
				<duration>384</duration>
				<voice>1</voice>
				<type>half</type>
			</note>
			<note>
				<pitch>
					<step>G</step>
					<octave>2</octave>
				</pitch>
				<duration>384</duration>
				<voice>1</voice>
				<type>half</type>
			</note>
		</measure>
		<measure number="27">
			<note>
				<pitch>
					<step>F</step>
					<octave>3</octave>
				</pitch>
				<duration>384</duration>
				<voice>1</voice>
				<type>half</type>
			</note>
			<note>
				<pitch>
					<step>C</step>
					<octave>3</octave>
				</pitch>
				<duration>384</duration>
				<voice>1</voice>
				<type>half</type>
			</note>
			<barline location="right">
				<bar-style>light-light</bar-style>
			</barline>
		</measure>
		<measure number="28">
			<note>
				<pitch>
					<step>F</step>
					<octave>3</octave>
				</pitch>
				<duration>384</duration>
				<voice>1</voice>
				<type>half</type>
			</note>
			<note>
				<pitch>
					<step>C</step>
					<octave>3</octave>
				</pitch>
				<duration>384</duration>
				<voice>1</voice>
				<type>half</type>
			</note>
		</measure>
		<measure number="29">
			<note>
				<pitch>
					<step>F</step>
					<octave>2</octave>
				</pitch>
				<duration>384</duration>
				<voice>1</voice>
				<type>half</type>
			</note>
			<note>
				<pitch>
					<step>C</step>
					<octave>2</octave>
				</pitch>
				<duration>384</duration>
				<voice>1</voice>
				<type>half</type>
			</note>
			<note>
				<chord />
				<pitch>
					<step>C</step>
					<octave>3</octave>
				</pitch>
				<duration>384</duration>
				<voice>1</voice>
				<type>half</type>
			</note>
		</measure>
		<measure number="30">
			<note>
				<pitch>
					<step>F</step>
					<octave>3</octave>
				</pitch>
				<duration>384</duration>
				<voice>1</voice>
				<type>half</type>
			</note>
			<note>
				<pitch>
					<step>G</step>
					<octave>3</octave>
				</pitch>
				<duration>384</duration>
				<voice>1</voice>
				<type>half</type>
			</note>
			<barline location="right">
				<bar-style>light-light</bar-style>
			</barline>
		</measure>
		<measure number="31">
			<note>
				<pitch>
					<step>F</step>
					<octave>3</octave>
				</pitch>
				<duration>384</duration>
				<voice>1</voice>
				<type>half</type>
			</note>
			<note>
				<pitch>
					<step>G</step>
					<octave>3</octave>
				</pitch>
				<duration>384</duration>
				<voice>1</voice>
				<type>half</type>
			</note>
		</measure>
		<measure number="32">
			<note>
				<pitch>
					<step>F</step>
					<octave>3</octave>
				</pitch>
				<duration>384</duration>
				<voice>1</voice>
				<type>half</type>
			</note>
			<note>
				<pitch>
					<step>C</step>
					<octave>3</octave>
				</pitch>
				<duration>384</duration>
				<voice>1</voice>
				<type>half</type>
			</note>
			<barline location="right">
				<bar-style>light-light</bar-style>
			</barline>
		</measure>
		<measure number="33">
			<note>
				<pitch>
					<step>F</step>
					<octave>3</octave>
				</pitch>
				<duration>384</duration>
				<voice>1</voice>
				<type>half</type>
			</note>
			<note>
				<pitch>
					<step>G</step>
					<octave>3</octave>
				</pitch>
				<duration>384</duration>
				<voice>1</voice>
				<type>half</type>
			</note>
		</measure>
		<measure number="34">
			<note>
				<pitch>
					<step>F</step>
					<octave>3</octave>
				</pitch>
				<duration>384</duration>
				<voice>1</voice>
				<type>half</type>
			</note>
			<note>
				<pitch>
					<step>C</step>
					<octave>3</octave>
				</pitch>
				<duration>384</duration>
				<voice>1</voice>
				<type>half</type>
			</note>
			<barline location="right">
				<bar-style>light-light</bar-style>
			</barline>
		</measure>
		<measure number="35">
			<note>
				<pitch>
					<step>G</step>
					<octave>2</octave>
				</pitch>
				<duration>384</duration>
				<voice>1</voice>
				<type>half</type>
			</note>
			<note>
				<pitch>
					<step>C</step>
					<octave>3</octave>
				</pitch>
				<duration>384</duration>
				<voice>1</voice>
				<type>half</type>
			</note>
		</measure>
		<measure number="36">
			<note>
				<pitch>
					<step>G</step>
					<octave>2</octave>
				</pitch>
				<duration>384</duration>
				<voice>1</voice>
				<type>half</type>
			</note>
			<note>
				<pitch>
					<step>C</step>
					<octave>3</octave>
				</pitch>
				<duration>384</duration>
				<voice>1</voice>
				<type>half</type>
			</note>
			<barline location="right">
				<bar-style>light-light</bar-style>
			</barline>
		</measure>
		<measure number="37">
			<note>
				<pitch>
					<step>G</step>
					<octave>2</octave>
				</pitch>
				<duration>384</duration>
				<voice>1</voice>
				<type>half</type>
			</note>
			<note>
				<pitch>
					<step>C</step>
					<octave>2</octave>
				</pitch>
				<duration>384</duration>
				<voice>1</voice>
				<type>half</type>
			</note>
			<note>
				<chord />
				<pitch>
					<step>C</step>
					<octave>3</octave>
				</pitch>
				<duration>384</duration>
				<voice>1</voice>
				<type>half</type>
			</note>
		</measure>
		<measure number="38">
			<note>
				<pitch>
					<step>G</step>
					<octave>2</octave>
				</pitch>
				<duration>384</duration>
				<voice>1</voice>
				<type>half</type>
			</note>
			<note>
				<pitch>
					<step>C</step>
					<octave>3</octave>
				</pitch>
				<duration>384</duration>
				<voice>1</voice>
				<type>half</type>
			</note>
		</measure>
		<measure number="39">
			<note>
				<pitch>
					<step>G</step>
					<octave>2</octave>
				</pitch>
				<duration>384</duration>
				<voice>1</voice>
				<type>half</type>
			</note>
			<note>
				<pitch>
					<step>C</step>
					<octave>3</octave>
				</pitch>
				<duration>384</duration>
				<voice>1</voice>
				<type>half</type>
			</note>
			<barline location="right">
				<bar-style>light-light</bar-style>
			</barline>
		</measure>
		<measure number="40">
			<note>
				<pitch>
					<step>G</step>
					<octave>2</octave>
				</pitch>
				<duration>384</duration>
				<voice>1</voice>
				<type>half</type>
			</note>
			<note>
				<pitch>
					<step>C</step>
					<octave>2</octave>
				</pitch>
				<duration>384</duration>
				<voice>1</voice>
				<type>half</type>
			</note>
			<note>
				<chord />
				<pitch>
					<step>C</step>
					<octave>3</octave>
				</pitch>
				<duration>384</duration>
				<voice>1</voice>
				<type>half</type>
			</note>
		</measure>
		<measure number="41">
			<note>
				<pitch>
					<step>G</step>
					<octave>2</octave>
				</pitch>
				<duration>384</duration>
				<voice>1</voice>
				<type>half</type>
			</note>
			<note>
				<pitch>
					<step>C</step>
					<octave>3</octave>
				</pitch>
				<duration>384</duration>
				<voice>1</voice>
				<type>half</type>
			</note>
			<barline location="right">
				<bar-style>light-light</bar-style>
			</barline>
		</measure>
		<measure number="42">
			<note>
				<pitch>
					<step>G</step>
					<octave>2</octave>
				</pitch>
				<duration>384</duration>
				<voice>1</voice>
				<type>half</type>
			</note>
			<note>
				<pitch>
					<step>C</step>
					<octave>3</octave>
				</pitch>
				<duration>384</duration>
				<voice>1</voice>
				<type>half</type>
			</note>
		</measure>
		<measure number="43">
			<note>
				<pitch>
					<step>G</step>
					<octave>2</octave>
				</pitch>
				<duration>384</duration>
				<voice>1</voice>
				<type>half</type>
			</note>
			<note>
				<pitch>
					<step>C</step>
					<octave>3</octave>
				</pitch>
				<duration>384</duration>
				<voice>1</voice>
				<type>half</type>
			</note>
		</measure>
		<measure number="44">
			<note>
				<pitch>
					<step>G</step>
					<octave>2</octave>
				</pitch>
				<duration>384</duration>
				<voice>1</voice>
				<type>half</type>
			</note>
			<note>
				<pitch>
					<step>C</step>
					<octave>2</octave>
				</pitch>
				<duration>384</duration>
				<voice>1</voice>
				<type>half</type>
			</note>
			<note>
				<chord />
				<pitch>
					<step>C</step>
					<octave>3</octave>
				</pitch>
				<duration>384</duration>
				<voice>1</voice>
				<type>half</type>
			</note>
		</measure>
		<measure number="45">
			<note>
				<pitch>
					<step>G</step>
					<octave>2</octave>
				</pitch>
				<duration>384</duration>
				<voice>1</voice>
				<type>half</type>
			</note>
			<note>
				<pitch>
					<step>C</step>
					<octave>3</octave>
				</pitch>
				<duration>384</duration>
				<voice>1</voice>
				<type>half</type>
			</note>
		</measure>
		<measure number="46">
			<note>
				<pitch>
					<step>G</step>
					<octave>2</octave>
				</pitch>
				<duration>384</duration>
				<voice>1</voice>
				<type>half</type>
			</note>
			<note>
				<pitch>
					<step>C</step>
					<octave>3</octave>
				</pitch>
				<duration>384</duration>
				<voice>1</voice>
				<type>half</type>
			</note>
		</measure>
		<measure number="47">
			<note>
				<pitch>
					<step>G</step>
					<octave>2</octave>
				</pitch>
				<duration>384</duration>
				<voice>1</voice>
				<type>half</type>
			</note>
			<note>
				<pitch>
					<step>C</step>
					<octave>2</octave>
				</pitch>
				<duration>384</duration>
				<voice>1</voice>
				<type>half</type>
			</note>
			<note>
				<chord />
				<pitch>
					<step>C</step>
					<octave>3</octave>
				</pitch>
				<duration>384</duration>
				<voice>1</voice>
				<type>half</type>
			</note>
		</measure>
		<measure number="48">
			<note>
				<pitch>
					<step>G</step>
					<octave>2</octave>
				</pitch>
				<duration>384</duration>
				<voice>1</voice>
				<type>half</type>
			</note>
			<note>
				<pitch>
					<step>C</step>
					<octave>3</octave>
				</pitch>
				<duration>384</duration>
				<voice>1</voice>
				<type>half</type>
			</note>
			<barline location="right">
				<bar-style>light-heavy</bar-style>
			</barline>
		</measure>
	</part>
</score-partwise>
